<svg xmlns="http://www.w3.org/2000/svg" xmlns:xlink="http://www.w3.org/1999/xlink" width="1920" zoomAndPan="magnify" viewBox="0 0 1440 809.999993" height="1080" preserveAspectRatio="xMidYMid meet" version="1.0"><defs><g/></defs><g fill="#1b7387" fill-opacity="1"><g transform="translate(172.23883, 494.093289)"><g><path d="M 78.765625 0 L 78.765625 -208.828125 L 9.59375 -208.828125 L 9.59375 -231.671875 L 175.734375 -231.671875 L 175.734375 -208.828125 L 106.5625 -208.828125 L 106.5625 0 Z M 78.765625 0 "/></g></g></g><g fill="#1b7387" fill-opacity="1"><g transform="translate(357.567952, 494.093289)"><g><path d="M 24.484375 0 L 24.484375 -231.671875 L 167.796875 -231.671875 L 167.796875 -208.828125 L 52.296875 -208.828125 L 52.296875 -128.078125 L 157.859375 -128.078125 L 157.859375 -105.578125 L 52.296875 -105.578125 L 52.296875 -22.828125 L 167.796875 -22.828125 L 167.796875 0 Z M 24.484375 0 "/></g></g></g><g fill="#1b7387" fill-opacity="1"><g transform="translate(544.220844, 494.093289)"><g><path d="M 124.109375 3.96875 C 102.484375 3.96875 83.503906 -1.046875 67.171875 -11.078125 C 50.847656 -21.117188 38.164062 -35.128906 29.125 -53.109375 C 20.082031 -71.097656 15.5625 -91.894531 15.5625 -115.5 C 15.5625 -139.113281 20.140625 -159.960938 29.296875 -178.046875 C 38.453125 -196.140625 51.46875 -210.257812 68.34375 -220.40625 C 85.21875 -230.5625 105.128906 -235.640625 128.078125 -235.640625 C 154.109375 -235.640625 175.785156 -229.347656 193.109375 -216.765625 C 210.429688 -204.191406 221.628906 -186.875 226.703125 -164.8125 L 194.59375 -164.8125 C 191.507812 -178.71875 184.175781 -189.75 172.59375 -197.90625 C 161.007812 -206.070312 146.171875 -210.15625 128.078125 -210.15625 C 111.085938 -210.15625 96.300781 -206.347656 83.71875 -198.734375 C 71.144531 -191.117188 61.382812 -180.25 54.4375 -166.125 C 47.488281 -152.007812 44.015625 -135.132812 44.015625 -115.5 C 44.015625 -95.863281 47.429688 -78.984375 54.265625 -64.859375 C 61.109375 -50.742188 70.597656 -39.878906 82.734375 -32.265625 C 94.867188 -24.648438 108.988281 -20.84375 125.09375 -20.84375 C 149.8125 -20.84375 168.457031 -28.066406 181.03125 -42.515625 C 193.601562 -56.972656 200.773438 -76.78125 202.546875 -101.9375 L 135.6875 -101.9375 L 135.6875 -123.78125 L 231 -123.78125 L 231 0 L 205.515625 0 L 203.203125 -38.0625 C 194.816406 -24.601562 184.554688 -14.234375 172.421875 -6.953125 C 160.285156 0.328125 144.179688 3.96875 124.109375 3.96875 Z M 124.109375 3.96875 "/></g></g></g><g fill="#1b7387" fill-opacity="1"><g transform="translate(794.746135, 494.093289)"><g><path d="M 24.484375 0 L 24.484375 -231.671875 L 99.28125 -231.671875 C 117.375 -231.671875 132.15625 -228.691406 143.625 -222.734375 C 155.101562 -216.773438 163.597656 -208.609375 169.109375 -198.234375 C 174.628906 -187.867188 177.390625 -176.398438 177.390625 -163.828125 C 177.390625 -149.265625 173.472656 -136.132812 165.640625 -124.4375 C 157.804688 -112.738281 145.617188 -104.460938 129.078125 -99.609375 L 179.703125 0 L 146.9375 0 L 99.953125 -95.640625 L 52.296875 -95.640625 L 52.296875 0 Z M 52.296875 -117.484375 L 97.296875 -117.484375 C 115.171875 -117.484375 128.1875 -121.785156 136.34375 -130.390625 C 144.507812 -138.992188 148.59375 -150.023438 148.59375 -163.484375 C 148.59375 -177.171875 144.566406 -188.039062 136.515625 -196.09375 C 128.460938 -204.144531 115.28125 -208.171875 96.96875 -208.171875 L 52.296875 -208.171875 Z M 52.296875 -117.484375 "/></g></g></g><g fill="#1b7387" fill-opacity="1"><g transform="translate(990.996485, 494.093289)"><g><path d="M 129.734375 3.96875 C 107.003906 3.96875 87.085938 -1.046875 69.984375 -11.078125 C 52.890625 -21.117188 39.546875 -35.1875 29.953125 -53.28125 C 20.359375 -71.375 15.5625 -92.222656 15.5625 -115.828125 C 15.5625 -139.441406 20.359375 -160.238281 29.953125 -178.21875 C 39.546875 -196.195312 52.890625 -210.257812 69.984375 -220.40625 C 87.085938 -230.5625 107.003906 -235.640625 129.734375 -235.640625 C 152.679688 -235.640625 172.703125 -230.5625 189.796875 -220.40625 C 206.898438 -210.257812 220.191406 -196.195312 229.671875 -178.21875 C 239.160156 -160.238281 243.90625 -139.441406 243.90625 -115.828125 C 243.90625 -92.222656 239.160156 -71.375 229.671875 -53.28125 C 220.191406 -35.1875 206.898438 -21.117188 189.796875 -11.078125 C 172.703125 -1.046875 152.679688 3.96875 129.734375 3.96875 Z M 129.734375 -20.515625 C 146.722656 -20.515625 161.671875 -24.320312 174.578125 -31.9375 C 187.484375 -39.550781 197.519531 -50.472656 204.6875 -64.703125 C 211.863281 -78.929688 215.453125 -95.972656 215.453125 -115.828125 C 215.453125 -135.691406 211.863281 -152.679688 204.6875 -166.796875 C 197.519531 -180.921875 187.484375 -191.785156 174.578125 -199.390625 C 161.671875 -207.003906 146.722656 -210.8125 129.734375 -210.8125 C 112.742188 -210.8125 97.796875 -207.003906 84.890625 -199.390625 C 71.984375 -191.785156 61.941406 -180.921875 54.765625 -166.796875 C 47.597656 -152.679688 44.015625 -135.691406 44.015625 -115.828125 C 44.015625 -95.972656 47.597656 -78.929688 54.765625 -64.703125 C 61.941406 -50.472656 71.984375 -39.550781 84.890625 -31.9375 C 97.796875 -24.320312 112.742188 -20.515625 129.734375 -20.515625 Z M 129.734375 -20.515625 "/></g></g></g><g fill="#1b7387" fill-opacity="1"><g transform="translate(189.416639, 600.776865)"><g><path d="M 35.359375 1.109375 C 28.867188 1.109375 23.296875 -0.28125 18.640625 -3.0625 C 13.992188 -5.851562 10.414062 -9.742188 7.90625 -14.734375 C 5.394531 -19.722656 4.140625 -25.492188 4.140625 -32.046875 C 4.140625 -38.597656 5.394531 -44.382812 7.90625 -49.40625 C 10.414062 -54.425781 13.992188 -58.34375 18.640625 -61.15625 C 23.296875 -63.976562 28.867188 -65.390625 35.359375 -65.390625 C 43.078125 -65.390625 49.398438 -63.472656 54.328125 -59.640625 C 59.253906 -55.816406 62.332031 -50.445312 63.5625 -43.53125 L 50.609375 -43.53125 C 49.804688 -47.019531 48.101562 -49.757812 45.5 -51.75 C 42.90625 -53.738281 39.460938 -54.734375 35.171875 -54.734375 C 29.234375 -54.734375 24.582031 -52.710938 21.21875 -48.671875 C 17.851562 -44.628906 16.171875 -39.085938 16.171875 -32.046875 C 16.171875 -25.003906 17.851562 -19.476562 21.21875 -15.46875 C 24.582031 -11.457031 29.234375 -9.453125 35.171875 -9.453125 C 39.460938 -9.453125 42.90625 -10.382812 45.5 -12.25 C 48.101562 -14.125 49.804688 -16.710938 50.609375 -20.015625 L 63.5625 -20.015625 C 62.332031 -13.410156 59.253906 -8.238281 54.328125 -4.5 C 49.398438 -0.757812 43.078125 1.109375 35.359375 1.109375 Z M 35.359375 1.109375 "/></g></g></g><g fill="#1b7387" fill-opacity="1"><g transform="translate(257.099742, 600.776865)"><g><path d="M 36.375 1.109375 C 29.9375 1.109375 24.316406 -0.296875 19.515625 -3.109375 C 14.710938 -5.929688 10.945312 -9.835938 8.21875 -14.828125 C 5.5 -19.816406 4.140625 -25.585938 4.140625 -32.140625 C 4.140625 -38.691406 5.5 -44.460938 8.21875 -49.453125 C 10.945312 -54.441406 14.710938 -58.34375 19.515625 -61.15625 C 24.316406 -63.976562 29.9375 -65.390625 36.375 -65.390625 C 42.738281 -65.390625 48.335938 -63.976562 53.171875 -61.15625 C 58.015625 -58.34375 61.78125 -54.441406 64.46875 -49.453125 C 67.164062 -44.460938 68.515625 -38.691406 68.515625 -32.140625 C 68.515625 -25.585938 67.164062 -19.816406 64.46875 -14.828125 C 61.78125 -9.835938 58.015625 -5.929688 53.171875 -3.109375 C 48.335938 -0.296875 42.738281 1.109375 36.375 1.109375 Z M 36.375 -9.453125 C 42.488281 -9.453125 47.367188 -11.472656 51.015625 -15.515625 C 54.660156 -19.554688 56.484375 -25.097656 56.484375 -32.140625 C 56.484375 -39.179688 54.660156 -44.722656 51.015625 -48.765625 C 47.367188 -52.804688 42.488281 -54.828125 36.375 -54.828125 C 30.25 -54.828125 25.347656 -52.804688 21.671875 -48.765625 C 18.003906 -44.722656 16.171875 -39.179688 16.171875 -32.140625 C 16.171875 -25.097656 18.003906 -19.554688 21.671875 -15.515625 C 25.347656 -11.472656 30.25 -9.453125 36.375 -9.453125 Z M 36.375 -9.453125 "/></g></g></g><g fill="#1b7387" fill-opacity="1"><g transform="translate(329.741989, 600.776865)"><g><path d="M 6.25 0 L 6.25 -64.296875 L 20.203125 -64.296875 L 40.6875 -23.515625 L 60.890625 -64.296875 L 74.859375 -64.296875 L 74.859375 0 L 63.09375 0 L 63.09375 -44.359375 L 45.1875 -9.1875 L 35.90625 -9.1875 L 18 -44.359375 L 18 0 Z M 6.25 0 "/></g></g></g><g fill="#1b7387" fill-opacity="1"><g transform="translate(410.83315, 600.776865)"><g><path d="M 6.25 0 L 6.25 -64.296875 L 20.203125 -64.296875 L 40.6875 -23.515625 L 60.890625 -64.296875 L 74.859375 -64.296875 L 74.859375 0 L 63.09375 0 L 63.09375 -44.359375 L 45.1875 -9.1875 L 35.90625 -9.1875 L 18 -44.359375 L 18 0 Z M 6.25 0 "/></g></g></g><g fill="#1b7387" fill-opacity="1"><g transform="translate(491.924311, 600.776865)"><g><path d="M 36.375 1.109375 C 29.9375 1.109375 24.316406 -0.296875 19.515625 -3.109375 C 14.710938 -5.929688 10.945312 -9.835938 8.21875 -14.828125 C 5.5 -19.816406 4.140625 -25.585938 4.140625 -32.140625 C 4.140625 -38.691406 5.5 -44.460938 8.21875 -49.453125 C 10.945312 -54.441406 14.710938 -58.34375 19.515625 -61.15625 C 24.316406 -63.976562 29.9375 -65.390625 36.375 -65.390625 C 42.738281 -65.390625 48.335938 -63.976562 53.171875 -61.15625 C 58.015625 -58.34375 61.78125 -54.441406 64.46875 -49.453125 C 67.164062 -44.460938 68.515625 -38.691406 68.515625 -32.140625 C 68.515625 -25.585938 67.164062 -19.816406 64.46875 -14.828125 C 61.78125 -9.835938 58.015625 -5.929688 53.171875 -3.109375 C 48.335938 -0.296875 42.738281 1.109375 36.375 1.109375 Z M 36.375 -9.453125 C 42.488281 -9.453125 47.367188 -11.472656 51.015625 -15.515625 C 54.660156 -19.554688 56.484375 -25.097656 56.484375 -32.140625 C 56.484375 -39.179688 54.660156 -44.722656 51.015625 -48.765625 C 47.367188 -52.804688 42.488281 -54.828125 36.375 -54.828125 C 30.25 -54.828125 25.347656 -52.804688 21.671875 -48.765625 C 18.003906 -44.722656 16.171875 -39.179688 16.171875 -32.140625 C 16.171875 -25.097656 18.003906 -19.554688 21.671875 -15.515625 C 25.347656 -11.472656 30.25 -9.453125 36.375 -9.453125 Z M 36.375 -9.453125 "/></g></g></g><g fill="#1b7387" fill-opacity="1"><g transform="translate(564.566558, 600.776865)"><g><path d="M 6.25 0 L 6.25 -64.296875 L 28.203125 -64.296875 C 35.734375 -64.296875 41.929688 -62.960938 46.796875 -60.296875 C 51.660156 -57.628906 55.269531 -53.890625 57.625 -49.078125 C 59.988281 -44.273438 61.171875 -38.628906 61.171875 -32.140625 C 61.171875 -25.648438 59.988281 -20 57.625 -15.1875 C 55.269531 -10.382812 51.660156 -6.648438 46.796875 -3.984375 C 41.929688 -1.328125 35.734375 0 28.203125 0 Z M 18 -10.109375 L 27.640625 -10.109375 C 33.035156 -10.109375 37.289062 -10.976562 40.40625 -12.71875 C 43.53125 -14.46875 45.765625 -16.976562 47.109375 -20.25 C 48.460938 -23.53125 49.140625 -27.492188 49.140625 -32.140625 C 49.140625 -36.734375 48.460938 -40.679688 47.109375 -43.984375 C 45.765625 -47.296875 43.53125 -49.835938 40.40625 -51.609375 C 37.289062 -53.390625 33.035156 -54.28125 27.640625 -54.28125 L 18 -54.28125 Z M 18 -10.109375 "/></g></g></g><g fill="#1b7387" fill-opacity="1"><g transform="translate(629.861932, 600.776865)"><g><path d="M 6.25 0 L 6.25 -64.296875 L 18 -64.296875 L 18 0 Z M 6.25 0 "/></g></g></g><g fill="#1b7387" fill-opacity="1"><g transform="translate(654.106634, 600.776865)"><g><path d="M 21.21875 0 L 21.21875 -54.828125 L 2.484375 -54.828125 L 2.484375 -64.296875 L 51.796875 -64.296875 L 51.796875 -54.828125 L 32.96875 -54.828125 L 32.96875 0 Z M 21.21875 0 "/></g></g></g><g fill="#1b7387" fill-opacity="1"><g transform="translate(708.381699, 600.776865)"><g><path d="M 22.875 0 L 22.875 -22.875 L 1.28125 -64.296875 L 14.609375 -64.296875 L 28.84375 -34.625 L 42.984375 -64.296875 L 56.109375 -64.296875 L 34.625 -22.875 L 34.625 0 Z M 22.875 0 "/></g></g></g><g fill="#1b7387" fill-opacity="1"><g transform="translate(765.779149, 600.776865)"><g/></g></g><g fill="#1b7387" fill-opacity="1"><g transform="translate(787.636122, 600.776865)"><g><path d="M 6.25 0 L 6.25 -64.296875 L 30.03125 -64.296875 C 35.175781 -64.296875 39.429688 -63.4375 42.796875 -61.71875 C 46.160156 -60 48.671875 -57.640625 50.328125 -54.640625 C 51.984375 -51.640625 52.8125 -48.273438 52.8125 -44.546875 C 52.8125 -40.992188 52.015625 -37.734375 50.421875 -34.765625 C 48.828125 -31.796875 46.347656 -29.40625 42.984375 -27.59375 C 39.617188 -25.789062 35.300781 -24.890625 30.03125 -24.890625 L 18 -24.890625 L 18 0 Z M 18 -34.4375 L 29.296875 -34.4375 C 33.398438 -34.4375 36.351562 -35.335938 38.15625 -37.140625 C 39.96875 -38.953125 40.875 -41.421875 40.875 -44.546875 C 40.875 -47.722656 39.96875 -50.210938 38.15625 -52.015625 C 36.351562 -53.828125 33.398438 -54.734375 29.296875 -54.734375 L 18 -54.734375 Z M 18 -34.4375 "/></g></g></g><g fill="#1b7387" fill-opacity="1"><g transform="translate(843.380577, 600.776865)"><g><path d="M 2.109375 0 L 25.625 -64.296875 L 38.84375 -64.296875 L 62.359375 0 L 49.875 0 L 44.734375 -14.875 L 19.65625 -14.875 L 14.421875 0 Z M 22.875 -24.0625 L 41.515625 -24.0625 L 32.140625 -50.796875 Z M 22.875 -24.0625 "/></g></g></g><g fill="#1b7387" fill-opacity="1"><g transform="translate(907.757571, 600.776865)"><g><path d="M 6.25 0 L 6.25 -64.296875 L 29.84375 -64.296875 C 34.988281 -64.296875 39.226562 -63.421875 42.5625 -61.671875 C 45.90625 -59.929688 48.398438 -57.570312 50.046875 -54.59375 C 51.703125 -51.625 52.53125 -48.335938 52.53125 -44.734375 C 52.53125 -40.804688 51.503906 -37.21875 49.453125 -33.96875 C 47.398438 -30.726562 44.203125 -28.375 39.859375 -26.90625 L 53.171875 0 L 39.671875 0 L 27.734375 -25.34375 L 18 -25.34375 L 18 0 Z M 18 -33.984375 L 29.109375 -33.984375 C 33.035156 -33.984375 35.914062 -34.929688 37.75 -36.828125 C 39.582031 -38.722656 40.5 -41.234375 40.5 -44.359375 C 40.5 -47.421875 39.59375 -49.867188 37.78125 -51.703125 C 35.976562 -53.546875 33.054688 -54.46875 29.015625 -54.46875 L 18 -54.46875 Z M 18 -33.984375 "/></g></g></g><g fill="#1b7387" fill-opacity="1"><g transform="translate(964.971339, 600.776865)"><g><path d="M 21.21875 0 L 21.21875 -54.828125 L 2.484375 -54.828125 L 2.484375 -64.296875 L 51.796875 -64.296875 L 51.796875 -54.828125 L 32.96875 -54.828125 L 32.96875 0 Z M 21.21875 0 "/></g></g></g><g fill="#1b7387" fill-opacity="1"><g transform="translate(1019.246404, 600.776865)"><g><path d="M 6.25 0 L 6.25 -64.296875 L 18 -64.296875 L 48.21875 -19.015625 L 48.21875 -64.296875 L 59.96875 -64.296875 L 59.96875 0 L 48.21875 0 L 18 -45.1875 L 18 0 Z M 6.25 0 "/></g></g></g><g fill="#1b7387" fill-opacity="1"><g transform="translate(1085.460156, 600.776865)"><g><path d="M 6.25 0 L 6.25 -64.296875 L 48.21875 -64.296875 L 48.21875 -54.828125 L 18 -54.828125 L 18 -37.203125 L 45.46875 -37.203125 L 45.46875 -28.015625 L 18 -28.015625 L 18 -9.453125 L 48.21875 -9.453125 L 48.21875 0 Z M 6.25 0 "/></g></g></g><g fill="#1b7387" fill-opacity="1"><g transform="translate(1138.541297, 600.776865)"><g><path d="M 6.25 0 L 6.25 -64.296875 L 29.84375 -64.296875 C 34.988281 -64.296875 39.226562 -63.421875 42.5625 -61.671875 C 45.90625 -59.929688 48.398438 -57.570312 50.046875 -54.59375 C 51.703125 -51.625 52.53125 -48.335938 52.53125 -44.734375 C 52.53125 -40.804688 51.503906 -37.21875 49.453125 -33.96875 C 47.398438 -30.726562 44.203125 -28.375 39.859375 -26.90625 L 53.171875 0 L 39.671875 0 L 27.734375 -25.34375 L 18 -25.34375 L 18 0 Z M 18 -33.984375 L 29.109375 -33.984375 C 33.035156 -33.984375 35.914062 -34.929688 37.75 -36.828125 C 39.582031 -38.722656 40.5 -41.234375 40.5 -44.359375 C 40.5 -47.421875 39.59375 -49.867188 37.78125 -51.703125 C 35.976562 -53.546875 33.054688 -54.46875 29.015625 -54.46875 L 18 -54.46875 Z M 18 -33.984375 "/></g></g></g><g fill="#1b7387" fill-opacity="1"><g transform="translate(1195.755143, 600.776865)"><g><path d="M 28.203125 1.109375 C 23.484375 1.109375 19.316406 0.296875 15.703125 -1.328125 C 12.085938 -2.953125 9.238281 -5.28125 7.15625 -8.3125 C 5.082031 -11.34375 4.015625 -15.03125 3.953125 -19.375 L 16.34375 -19.375 C 16.46875 -16.375 17.554688 -13.847656 19.609375 -11.796875 C 21.660156 -9.742188 24.492188 -8.71875 28.109375 -8.71875 C 31.222656 -8.71875 33.695312 -9.46875 35.53125 -10.96875 C 37.375 -12.46875 38.296875 -14.472656 38.296875 -16.984375 C 38.296875 -19.617188 37.484375 -21.671875 35.859375 -23.140625 C 34.242188 -24.609375 32.085938 -25.800781 29.390625 -26.71875 C 26.691406 -27.644531 23.8125 -28.628906 20.75 -29.671875 C 15.789062 -31.378906 12.007812 -33.578125 9.40625 -36.265625 C 6.8125 -38.960938 5.515625 -42.550781 5.515625 -47.03125 C 5.453125 -50.820312 6.351562 -54.078125 8.21875 -56.796875 C 10.082031 -59.523438 12.632812 -61.640625 15.875 -63.140625 C 19.125 -64.640625 22.863281 -65.390625 27.09375 -65.390625 C 31.375 -65.390625 35.148438 -64.625 38.421875 -63.09375 C 41.703125 -61.5625 44.273438 -59.414062 46.140625 -56.65625 C 48.015625 -53.90625 49.015625 -50.632812 49.140625 -46.84375 L 36.546875 -46.84375 C 36.492188 -49.101562 35.625 -51.101562 33.9375 -52.84375 C 32.25 -54.59375 29.90625 -55.46875 26.90625 -55.46875 C 24.332031 -55.53125 22.171875 -54.898438 20.421875 -53.578125 C 18.679688 -52.265625 17.8125 -50.351562 17.8125 -47.84375 C 17.8125 -45.707031 18.484375 -44.007812 19.828125 -42.75 C 21.179688 -41.5 23.019531 -40.441406 25.34375 -39.578125 C 27.675781 -38.722656 30.34375 -37.804688 33.34375 -36.828125 C 36.519531 -35.722656 39.425781 -34.4375 42.0625 -32.96875 C 44.695312 -31.5 46.8125 -29.554688 48.40625 -27.140625 C 50 -24.722656 50.796875 -21.613281 50.796875 -17.8125 C 50.796875 -14.445312 49.9375 -11.328125 48.21875 -8.453125 C 46.5 -5.578125 43.957031 -3.265625 40.59375 -1.515625 C 37.226562 0.234375 33.097656 1.109375 28.203125 1.109375 Z M 28.203125 1.109375 "/></g></g></g></svg>