<svg width="2862" height="1763" viewBox="0 0 2862 1763" fill="none" xmlns="http://www.w3.org/2000/svg">
<g clip-path="url(#clip0_524_103)">
<path d="M144.7 1491.88H93.63L0 1132.38H52.57L119.66 1424.79H120.66L201.27 1132.38H254.34L334.95 1424.79H335.95L403.04 1132.38H456.62L361.99 1491.88H310.92L228.8 1193.96H227.8L144.68 1491.88H144.7Z" fill="black"/>
<path d="M534.25 1387.24L496.7 1491.89H446.63L581.82 1132.39H636.9L767.08 1491.89H714.01L678.46 1387.24H534.26H534.25ZM660.93 1344.18L607.86 1185.96H606.86L549.28 1344.18H660.94H660.93Z" fill="black"/>
<path d="M720.51 1132.38H1012.42V1175.44H890.75V1491.88H842.18V1175.44H720.51V1132.38Z" fill="black"/>
<path d="M1327.86 1491.88H1062.49V1132.38H1324.36V1175.44H1111.06V1285.59H1307.84V1328.65H1111.06V1448.82H1327.86V1491.88Z" fill="black"/>
<path d="M1446.02 1491.88H1397.45V1132.38H1563.68C1622.76 1132.38 1681.85 1152.91 1681.85 1229.01C1681.85 1282.09 1654.81 1301.61 1631.78 1315.13C1652.31 1323.64 1672.84 1332.65 1674.84 1382.72L1677.84 1447.81C1678.34 1467.84 1680.84 1475.35 1695.87 1483.86V1491.87H1636.29C1629.28 1469.84 1627.78 1415.26 1627.78 1401.74C1627.78 1372.2 1621.77 1337.65 1563.69 1337.65H1446.02V1491.87V1491.88ZM1446.02 1296.11H1558.68C1594.23 1296.11 1631.78 1287.1 1631.78 1234.02C1631.78 1180.94 1591.22 1173.94 1567.19 1173.94H1446.02V1296.11Z" fill="black"/>
<path d="M1806.52 1491.88H1757.95V1132.38H2006.8V1175.44H1806.52V1285.59H1982.77V1328.65H1806.52V1491.88Z" fill="black"/>
<path d="M2075.4 1387.24L2037.85 1491.89H1987.78L2122.97 1132.39H2178.05L2308.23 1491.89H2255.16L2219.61 1387.24H2075.41H2075.4ZM2202.08 1344.18L2149 1185.96H2148L2090.42 1344.18H2202.08Z" fill="black"/>
<path d="M2401.35 1448.82H2583.61V1491.88H2352.79V1132.38H2401.36V1448.82H2401.35Z" fill="black"/>
<path d="M2679.74 1448.82H2862V1491.88H2631.18V1132.38H2679.75V1448.82H2679.74Z" fill="black"/>
<path d="M67.46 1664.79C72.6 1664.79 77.57 1665.17 82.37 1665.92C87.17 1666.67 91.92 1668.06 96.61 1670.07L92.92 1681.53C88.12 1679.52 83.79 1678.09 79.94 1677.23C76.09 1676.38 72.15 1675.95 68.13 1675.95C61.76 1675.95 56.74 1677.21 53.05 1679.72C49.36 1682.23 47.52 1685.75 47.52 1690.27C47.52 1694.09 48.89 1697.16 51.62 1699.47C54.36 1701.78 58.85 1703.79 65.1 1705.5L75.65 1708.51C85.25 1711.22 92.04 1714.92 96 1719.59C99.96 1724.26 101.95 1729.52 101.95 1735.34C101.95 1739.46 101.03 1743.21 99.19 1746.57C97.35 1749.94 94.78 1752.8 91.48 1755.16C88.19 1757.52 84.3 1759.33 79.84 1760.59C75.37 1761.84 70.46 1762.47 65.1 1762.47C59.74 1762.47 54.3 1762.04 48.77 1761.19C43.24 1760.34 37.74 1758.75 32.27 1756.44L35.96 1745.13C40.76 1747.24 45.45 1748.8 50.03 1749.8C54.61 1750.81 59.41 1751.31 64.44 1751.31C70.47 1751.31 75.61 1750.06 79.85 1747.54C84.09 1745.03 86.22 1741.31 86.22 1736.38C86.22 1734.57 85.91 1732.89 85.3 1731.33C84.68 1729.77 83.62 1728.29 82.12 1726.88C80.61 1725.47 78.57 1724.17 76.01 1722.96C73.44 1721.75 70.2 1720.6 66.29 1719.49L55.74 1716.47C48.03 1714.26 42.11 1711.25 37.98 1707.43C33.85 1703.61 31.78 1698.44 31.78 1691.9C31.78 1683.56 34.82 1676.95 40.91 1672.07C47 1667.2 55.85 1664.76 67.46 1664.76V1664.79Z" fill="black"/>
<path d="M205.65 1666.15V1677.91H172.65V1761.13H157.24V1677.91H124.91V1666.15H205.65Z" fill="black"/>
<path d="M237.31 1666.15H271.65C277.12 1666.15 281.95 1666.86 286.14 1668.26C290.33 1669.67 293.82 1671.63 296.61 1674.14C299.4 1676.65 301.52 1679.64 302.98 1683.11C304.43 1686.58 305.16 1690.37 305.16 1694.49C305.16 1698.11 304.54 1701.38 303.32 1704.29C302.09 1707.21 300.47 1709.74 298.46 1711.9C296.45 1714.06 294.13 1715.92 291.51 1717.48C288.88 1719.04 286.23 1720.32 283.55 1721.32L311.36 1761.12H294.11L269.15 1723.88H251.9V1761.12H237.33V1666.14L237.31 1666.15ZM251.89 1712.59H264.62C268.08 1712.59 271.29 1712.26 274.25 1711.61C277.21 1710.96 279.78 1709.95 281.96 1708.59C284.14 1707.23 285.87 1705.45 287.15 1703.24C288.43 1701.03 289.08 1698.37 289.08 1695.25C289.08 1689.12 287.21 1684.6 283.47 1681.68C279.73 1678.77 274.28 1677.31 267.14 1677.31H251.9V1712.59H251.89Z" fill="black"/>
<path d="M344.02 1666.15H407.68V1677.61H359.44V1706.1H403.33V1717.41H359.44V1749.67H408.19V1761.13H344.03V1666.15H344.02Z" fill="black"/>
<path d="M474.17 1666.15H487.91L529.96 1761.13H513.88L502.32 1734.75H458.93L447.54 1761.13H431.63L474.18 1666.15H474.17ZM463.12 1723.74H497.8L490.76 1707.31C488.86 1702.99 487.13 1698.82 485.57 1694.8C484 1690.78 482.44 1686.66 480.88 1682.44H480.55C478.98 1686.66 477.37 1690.73 475.69 1694.65C474.01 1698.57 472.23 1702.79 470.33 1707.31L463.13 1723.74H463.12Z" fill="black"/>
<path d="M566.47 1666.15H586.57L608.68 1726.76C609.79 1729.68 610.86 1732.51 611.86 1735.28C612.86 1738.05 613.81 1740.83 614.71 1743.65H615.04C615.93 1740.84 616.85 1738.12 617.8 1735.51C618.75 1732.9 619.84 1729.98 621.07 1726.77L642.68 1666.16H662.78L671.99 1761.14H656.58L652.22 1710.79C651.77 1705.87 651.44 1700.97 651.22 1696.09C651 1691.22 650.77 1686.27 650.55 1681.24H650.22C648.65 1686.17 647.06 1691.09 645.45 1696.02C643.83 1700.95 642.13 1705.87 640.34 1710.79L621.75 1761.14H607.68L589.09 1710.64C587.19 1705.51 585.46 1700.61 583.9 1695.94C582.33 1691.27 580.77 1686.37 579.21 1681.24H578.88C578.65 1686.17 578.35 1691.09 577.96 1696.02C577.57 1700.95 577.15 1705.87 576.7 1710.79L572.68 1761.14H557.6L566.48 1666.16L566.47 1666.15Z" fill="black"/>
<path d="M712.88 1666.15H728.29V1749.37H773.35V1761.13H712.88V1666.15Z" fill="black"/>
<path d="M821.42 1666.15V1761.13H806.01V1666.15H821.42Z" fill="black"/>
<path d="M864.81 1666.15H878.21L926.29 1726.3C928.07 1728.51 929.81 1730.77 931.48 1733.08C933.15 1735.39 934.66 1737.66 936 1739.86H936.34C936.11 1736.34 935.95 1732.83 935.84 1729.31C935.73 1725.79 935.67 1722.28 935.67 1718.76V1666.14H950.75V1761.12H937.35L889.78 1701.72C888.11 1699.61 886.37 1697.22 884.59 1694.56C882.8 1691.9 881.13 1689.26 879.56 1686.64H879.23C879.45 1690.86 879.62 1695.08 879.73 1699.3C879.84 1703.52 879.9 1707.74 879.9 1711.96V1761.11H864.82V1666.13L864.81 1666.15Z" fill="black"/>
<path d="M1009.54 1666.15V1761.13H994.13V1666.15H1009.54Z" fill="black"/>
<path d="M1052.92 1666.15H1066.32L1114.4 1726.3C1116.18 1728.51 1117.92 1730.77 1119.59 1733.08C1121.26 1735.39 1122.77 1737.66 1124.11 1739.86H1124.45C1124.22 1736.34 1124.06 1732.83 1123.95 1729.31C1123.84 1725.79 1123.78 1722.28 1123.78 1718.76V1666.14H1138.86V1761.12H1125.46L1077.89 1701.72C1076.22 1699.61 1074.48 1697.22 1072.7 1694.56C1070.91 1691.9 1069.24 1689.26 1067.67 1686.64H1067.34C1067.56 1690.86 1067.73 1695.08 1067.84 1699.3C1067.95 1703.52 1068.01 1707.74 1068.01 1711.96V1761.11H1052.93V1666.13L1052.92 1666.15Z" fill="black"/>
<path d="M1228.31 1664.79C1234.45 1664.79 1240.01 1665.19 1244.98 1666C1249.95 1666.81 1254.55 1668.21 1258.8 1670.22L1255.11 1681.07C1250.98 1679.36 1246.93 1678.11 1242.97 1677.3C1239 1676.5 1234.73 1676.09 1230.15 1676.09C1225.23 1676.09 1220.54 1676.74 1216.08 1678.05C1211.61 1679.36 1207.68 1681.49 1204.27 1684.46C1200.86 1687.43 1198.16 1691.3 1196.15 1696.07C1194.14 1700.84 1193.13 1706.75 1193.13 1713.78C1193.13 1725.94 1196.2 1735.19 1202.34 1741.52C1208.48 1747.85 1217.14 1751.02 1228.3 1751.02C1232.54 1751.02 1236.2 1750.82 1239.27 1750.42C1242.34 1750.02 1245.33 1749.32 1248.23 1748.31V1721.93H1228.3V1711.08H1262.64V1756.91C1258.17 1758.52 1253.2 1759.85 1247.73 1760.91C1242.26 1761.97 1235.78 1762.49 1228.3 1762.49C1220.82 1762.49 1214.26 1761.44 1207.95 1759.32C1201.64 1757.21 1196.14 1754.1 1191.45 1749.97C1186.76 1745.85 1183.07 1740.77 1180.39 1734.74C1177.71 1728.71 1176.37 1721.73 1176.37 1713.78C1176.37 1705.83 1177.68 1698.8 1180.31 1692.67C1182.93 1686.54 1186.53 1681.42 1191.11 1677.29C1195.69 1673.17 1201.16 1670.05 1207.53 1667.94C1213.9 1665.83 1220.82 1664.77 1228.3 1664.77L1228.31 1664.79Z" fill="black"/>
<path d="M1402.52 1751.03C1408.1 1751.03 1412.71 1750.63 1416.34 1749.82C1419.97 1749.02 1423.57 1747.86 1427.14 1746.35L1430.66 1757.51C1426.75 1759.22 1422.48 1760.48 1417.85 1761.28C1413.21 1762.08 1407.55 1762.49 1400.85 1762.49C1394.15 1762.49 1387.39 1761.44 1381.25 1759.32C1375.11 1757.21 1369.78 1754.1 1365.25 1749.97C1360.73 1745.85 1357.15 1740.75 1354.53 1734.67C1351.91 1728.59 1350.59 1721.58 1350.59 1713.64C1350.59 1705.7 1351.87 1698.99 1354.44 1692.91C1357.01 1686.83 1360.55 1681.7 1365.08 1677.53C1369.6 1673.36 1374.99 1670.2 1381.25 1668.03C1387.5 1665.87 1394.32 1664.79 1401.69 1664.79C1408.61 1664.79 1414.31 1665.29 1418.78 1666.3C1423.25 1667.31 1427.38 1668.66 1431.18 1670.37L1427.49 1681.22C1425.37 1680.42 1423.39 1679.69 1421.54 1679.03C1419.7 1678.38 1417.86 1677.85 1416.01 1677.45C1414.17 1677.05 1412.27 1676.75 1410.31 1676.55C1408.35 1676.35 1406.15 1676.25 1403.69 1676.25C1398.77 1676.25 1394.11 1676.93 1389.7 1678.29C1385.29 1679.65 1381.43 1681.83 1378.14 1684.85C1374.85 1687.86 1372.22 1691.76 1370.27 1696.53C1368.31 1701.31 1367.34 1707.06 1367.34 1713.79C1367.34 1720.52 1368.29 1726.4 1370.19 1731.13C1372.09 1735.86 1374.63 1739.67 1377.81 1742.59C1380.99 1745.51 1384.7 1747.64 1388.95 1749C1393.19 1750.36 1397.72 1751.04 1402.52 1751.04V1751.03Z" fill="black"/>
<path d="M1465.17 1666.15H1480.58V1749.37H1525.64V1761.13H1465.17V1666.15Z" fill="black"/>
<path d="M1573.72 1666.15V1761.13H1558.31V1666.15H1573.72Z" fill="black"/>
<path d="M1623.3 1666.15H1643.4L1665.51 1726.76C1666.63 1729.68 1667.69 1732.51 1668.69 1735.28C1669.69 1738.05 1670.64 1740.83 1671.54 1743.65H1671.87C1672.76 1740.84 1673.68 1738.12 1674.63 1735.51C1675.58 1732.9 1676.67 1729.98 1677.9 1726.77L1699.51 1666.16H1719.61L1728.82 1761.14H1713.41L1709.06 1710.79C1708.61 1705.87 1708.28 1700.97 1708.05 1696.09C1707.83 1691.22 1707.6 1686.27 1707.38 1681.24H1707.05C1705.48 1686.17 1703.89 1691.09 1702.28 1696.02C1700.66 1700.95 1698.96 1705.87 1697.17 1710.79L1678.58 1761.14H1664.51L1645.92 1710.64C1644.02 1705.51 1642.29 1700.61 1640.73 1695.94C1639.16 1691.27 1637.6 1686.37 1636.04 1681.24H1635.71C1635.48 1686.17 1635.18 1691.09 1634.79 1696.02C1634.4 1700.95 1633.98 1705.87 1633.53 1710.79L1629.51 1761.14H1614.43L1623.31 1666.16L1623.3 1666.15Z" fill="black"/>
<path d="M1799.19 1666.15H1812.93L1854.98 1761.13H1838.9L1827.34 1734.75H1783.95L1772.56 1761.13H1756.65L1799.2 1666.15H1799.19ZM1788.13 1723.74H1822.81L1815.77 1707.31C1813.87 1702.99 1812.14 1698.82 1810.58 1694.8C1809.01 1690.78 1807.45 1686.66 1805.89 1682.44H1805.56C1803.99 1686.66 1802.38 1690.73 1800.7 1694.65C1799.03 1698.57 1797.24 1702.79 1795.34 1707.31L1788.14 1723.74H1788.13Z" fill="black"/>
<path d="M1942.58 1666.15V1677.91H1909.58V1761.13H1894.17V1677.91H1861.84V1666.15H1942.58Z" fill="black"/>
<path d="M1974.24 1666.15H2037.89V1677.61H1989.65V1706.1H2033.54V1717.41H1989.65V1749.67H2038.4V1761.13H1974.24V1666.15Z" fill="black"/>
<path d="M2190.83 1666.15V1677.61H2144.26V1708.37H2187.14V1719.68H2144.26V1761.14H2128.85V1666.16H2190.83V1666.15Z" fill="black"/>
<path d="M2242.25 1666.15V1761.13H2226.84V1666.15H2242.25Z" fill="black"/>
<path d="M2285.64 1666.15H2299.04L2347.12 1726.3C2348.9 1728.51 2350.64 1730.77 2352.31 1733.08C2353.98 1735.39 2355.49 1737.66 2356.83 1739.86H2357.17C2356.94 1736.34 2356.78 1732.83 2356.67 1729.31C2356.56 1725.79 2356.5 1722.28 2356.5 1718.76V1666.14H2371.58V1761.12H2358.18L2310.61 1701.72C2308.94 1699.61 2307.2 1697.22 2305.42 1694.56C2303.63 1691.9 2301.96 1689.26 2300.39 1686.64H2300.06C2300.28 1690.86 2300.45 1695.08 2300.56 1699.3C2300.67 1703.52 2300.73 1707.74 2300.73 1711.96V1761.11H2285.65V1666.13L2285.64 1666.15Z" fill="black"/>
<path d="M2444.44 1666.15H2458.18L2500.23 1761.13H2484.15L2472.59 1734.75H2429.2L2417.81 1761.13H2401.9L2444.45 1666.15H2444.44ZM2433.38 1723.74H2468.06L2461.02 1707.31C2459.12 1702.99 2457.39 1698.82 2455.83 1694.8C2454.26 1690.78 2452.7 1686.66 2451.14 1682.44H2450.81C2449.24 1686.66 2447.63 1690.73 2445.95 1694.65C2444.28 1698.57 2442.49 1702.79 2440.59 1707.31L2433.39 1723.74H2433.38Z" fill="black"/>
<path d="M2530.54 1666.15H2543.94L2592.02 1726.3C2593.8 1728.51 2595.54 1730.77 2597.21 1733.08C2598.88 1735.39 2600.39 1737.66 2601.73 1739.86H2602.07C2601.84 1736.34 2601.68 1732.83 2601.57 1729.31C2601.46 1725.79 2601.4 1722.28 2601.4 1718.76V1666.14H2616.48V1761.12H2603.08L2555.51 1701.72C2553.84 1699.61 2552.1 1697.22 2550.32 1694.56C2548.53 1691.9 2546.86 1689.26 2545.29 1686.64H2544.96C2545.18 1690.86 2545.35 1695.08 2545.46 1699.3C2545.57 1703.52 2545.63 1707.74 2545.63 1711.96V1761.11H2530.55V1666.13L2530.54 1666.15Z" fill="black"/>
<path d="M2705.93 1751.03C2711.51 1751.03 2716.12 1750.63 2719.75 1749.82C2723.38 1749.02 2726.98 1747.86 2730.55 1746.35L2734.07 1757.51C2730.16 1759.22 2725.89 1760.48 2721.26 1761.28C2716.62 1762.08 2710.96 1762.49 2704.26 1762.49C2697.56 1762.49 2690.8 1761.44 2684.66 1759.32C2678.52 1757.21 2673.19 1754.1 2668.66 1749.97C2664.14 1745.85 2660.56 1740.75 2657.94 1734.67C2655.32 1728.59 2654 1721.58 2654 1713.64C2654 1705.7 2655.28 1698.99 2657.85 1692.91C2660.42 1686.83 2663.96 1681.7 2668.49 1677.53C2673.01 1673.36 2678.4 1670.2 2684.66 1668.03C2690.91 1665.87 2697.73 1664.79 2705.1 1664.79C2712.02 1664.79 2717.72 1665.29 2722.19 1666.3C2726.66 1667.31 2730.79 1668.66 2734.59 1670.37L2730.9 1681.22C2728.78 1680.42 2726.8 1679.69 2724.95 1679.03C2723.11 1678.38 2721.27 1677.85 2719.42 1677.45C2717.58 1677.05 2715.68 1676.75 2713.72 1676.55C2711.76 1676.35 2709.56 1676.25 2707.1 1676.25C2702.18 1676.25 2697.52 1676.93 2693.11 1678.29C2688.7 1679.65 2684.84 1681.83 2681.55 1684.85C2678.26 1687.86 2675.63 1691.76 2673.68 1696.53C2671.72 1701.31 2670.75 1707.06 2670.75 1713.79C2670.75 1720.52 2671.7 1726.4 2673.6 1731.13C2675.5 1735.86 2678.04 1739.67 2681.22 1742.59C2684.4 1745.51 2688.11 1747.64 2692.36 1749C2696.6 1750.36 2701.13 1751.04 2705.93 1751.04V1751.03Z" fill="black"/>
<path d="M2768.58 1666.15H2832.23V1677.61H2783.99V1706.1H2827.88V1717.41H2783.99V1749.67H2832.74V1761.13H2768.58V1666.15Z" fill="black"/>
<path d="M1782.63 295.47C1700.75 373.35 1586.79 404.84 1477.71 420.59C1380.36 434.91 1278.72 440.92 1191.69 478.71C1100.64 518.51 1043.38 584.36 1047.96 686.29C1050.82 747.56 1083.75 807.4 1130.13 853.5C1143.01 863.81 1156.18 873.54 1169.93 882.42C1169.07 880.7 1168.21 878.7 1166.78 876.98C1111.52 801.11 1068.58 583.8 1357.75 536.56C1415.87 527.11 1473.99 517.38 1531.83 504.21C1582.79 492.47 1673.84 463.84 1683.86 458.4C1692.16 453.53 1629.75 523.68 1438.49 578.65C1134.71 665.97 1228.05 918.21 1320.82 947.13C1356.32 955.72 1393.54 960.01 1431.62 960.01C1696.74 960.01 1911.76 745.28 1911.76 480.15C1911.76 384.81 1883.99 296.05 1836.17 221.61C1823.29 249.67 1805.25 273.72 1782.63 295.48V295.47Z" fill="#2AB4D4"/>
<path d="M951.75 480.14C951.75 532.82 960.34 582.93 975.8 630.45C981.53 578.34 999.28 529.1 1032.49 487.29C1092.62 410.85 1185.95 375.06 1283.01 355.87C1379.78 336.97 1482.85 334.68 1582.2 310.63C1637.17 297.46 1693 275.99 1737.38 240.77C1774.31 210.99 1791.49 165.76 1753.13 123.67C1739.1 111.07 1724.21 99.05 1708.75 88.17C1736.81 145.72 1715.05 231.33 1487.43 253.66C1429.02 259.67 1370.9 265.11 1313.35 273.13C1296.46 275.42 1275.56 278.57 1254.08 282.29C1254.08 282.29 1272.98 258.81 1406.4 228.46C1680.69 166.62 1629.44 47.23 1548.12 14.3C1510.9 5.13998 1471.68 -0.0200195 1431.59 -0.0200195C1166.47 0.26998 951.73 215 951.73 480.12L951.75 480.14Z" fill="#2AB4D4"/>
</g>
<defs>
<clipPath id="clip0_524_103">
<rect width="2862" height="1762.49" fill="white"/>
</clipPath>
</defs>
</svg>
