<svg width="1000" height="1000" viewBox="900 -50 1050 1000" fill="none" xmlns="http://www.w3.org/2000/svg">
<g clip-path="url(#clip0_524_103)">
<path d="M1782.63 295.47C1700.75 373.35 1586.79 404.84 1477.71 420.59C1380.36 434.91 1278.72 440.92 1191.69 478.71C1100.64 518.51 1043.38 584.36 1047.96 686.29C1050.82 747.56 1083.75 807.4 1130.13 853.5C1143.01 863.81 1156.18 873.54 1169.93 882.42C1169.07 880.7 1168.21 878.7 1166.78 876.98C1111.52 801.11 1068.58 583.8 1357.75 536.56C1415.87 527.11 1473.99 517.38 1531.83 504.21C1582.79 492.47 1673.84 463.84 1683.86 458.4C1692.16 453.53 1629.75 523.68 1438.49 578.65C1134.71 665.97 1228.05 918.21 1320.82 947.13C1356.32 955.72 1393.54 960.01 1431.62 960.01C1696.74 960.01 1911.76 745.28 1911.76 480.15C1911.76 384.81 1883.99 296.05 1836.17 221.61C1823.29 249.67 1805.25 273.72 1782.63 295.48V295.47Z" fill="#2AB4D4"/>
<path d="M951.75 480.14C951.75 532.82 960.34 582.93 975.8 630.45C981.53 578.34 999.28 529.1 1032.49 487.29C1092.62 410.85 1185.95 375.06 1283.01 355.87C1379.78 336.97 1482.85 334.68 1582.2 310.63C1637.17 297.46 1693 275.99 1737.38 240.77C1774.31 210.99 1791.49 165.76 1753.13 123.67C1739.1 111.07 1724.21 99.05 1708.75 88.17C1736.81 145.72 1715.05 231.33 1487.43 253.66C1429.02 259.67 1370.9 265.11 1313.35 273.13C1296.46 275.42 1275.56 278.57 1254.08 282.29C1254.08 282.29 1272.98 258.81 1406.4 228.46C1680.69 166.62 1629.44 47.23 1548.12 14.3C1510.9 5.13998 1471.68 -0.0200195 1431.59 -0.0200195C1166.47 0.26998 951.73 215 951.73 480.12L951.75 480.14Z" fill="#2AB4D4"/>
</g>
<defs>
<clipPath id="clip0_524_103">
<rect width="2000" height="1000" fill="white"/>
</clipPath>
</defs>
</svg>
