<?xml version="1.0" encoding="UTF-8"?>
<svg id="Layer_2" data-name="Layer 2" xmlns="http://www.w3.org/2000/svg" viewBox="0 0 2862 1762.75">
  <defs>
    <style>
      .cls-1 {
        fill: #000;
      }

      .cls-1, .cls-2 {
        stroke-width: 0px;
      }

      .cls-2 {
        fill: #2ab4d4;
      }
    </style>
  </defs>
  <g id="Layer_1-2" data-name="Layer 1">
    <g>
      <g>
        <path class="cls-1" d="M144.7,1491.88h-51.07L0,1132.38h52.57l67.09,292.41h1l80.61-292.41h53.07l80.61,292.41h1l67.09-292.41h53.58l-94.63,359.5h-51.07l-82.12-297.92h-1l-83.12,297.92Z"/>
        <path class="cls-1" d="M534.25,1387.24l-37.55,104.65h-50.07l135.19-359.5h55.08l130.18,359.5h-53.07l-35.55-104.65h-144.2ZM660.93,1344.17l-53.07-158.22h-1l-57.58,158.22h111.66Z"/>
        <path class="cls-1" d="M720.51,1132.38h291.91v43.06h-121.67v316.44h-48.57v-316.44h-121.67v-43.06Z"/>
        <path class="cls-1" d="M1327.86,1491.88h-265.37v-359.5h261.87v43.06h-213.3v110.15h196.78v43.06h-196.78v120.17h216.8v43.06Z"/>
        <path class="cls-1" d="M1446.02,1491.88h-48.57v-359.5h166.23c59.08,0,118.17,20.53,118.17,96.63,0,53.08-27.04,72.6-50.07,86.12,20.53,8.51,41.06,17.53,43.06,67.59l3,65.09c.5,20.03,3,27.54,18.03,36.05v8.01h-59.58c-7.01-22.03-8.51-76.61-8.51-90.13,0-29.54-6.01-64.09-64.09-64.09h-117.67v154.22ZM1446.02,1296.11h112.66c35.55,0,73.1-9.01,73.1-62.09s-40.56-60.08-64.59-60.08h-121.17v122.17Z"/>
        <path class="cls-1" d="M1806.52,1491.88h-48.57v-359.5h248.85v43.06h-200.28v110.15h176.25v43.06h-176.25v163.23Z"/>
        <path class="cls-1" d="M2075.4,1387.24l-37.55,104.65h-50.07l135.19-359.5h55.08l130.18,359.5h-53.07l-35.55-104.65h-144.2ZM2202.08,1344.17l-53.08-158.22h-1l-57.58,158.22h111.66Z"/>
        <path class="cls-1" d="M2401.35,1448.82h182.26v43.06h-230.82v-359.5h48.57v316.44Z"/>
        <path class="cls-1" d="M2679.75,1448.82h182.26v43.06h-230.82v-359.5h48.57v316.44Z"/>
      </g>
      <g>
        <path class="cls-1" d="M58.1,1657.45c12.36,0,23.16,2.05,32.4,6.15l-4.5,13.77c-5.04-2.16-9.69-3.75-13.95-4.78-4.26-1.03-8.55-1.54-12.87-1.54-6.48,0-11.58,1.24-15.3,3.73-3.72,2.48-5.58,5.94-5.58,10.37,0,3.89,1.44,6.97,4.32,9.23,2.88,2.27,7.56,4.32,14.04,6.16l11.16,3.24c9.84,2.81,17.04,6.72,21.6,11.74,4.56,5.02,6.84,10.83,6.84,17.41,0,4.43-.96,8.48-2.88,12.15-1.92,3.67-4.65,6.8-8.19,9.4-3.54,2.59-7.83,4.62-12.87,6.07-5.04,1.46-10.62,2.19-16.74,2.19s-12.21-.51-18.27-1.54c-6.06-1.03-11.97-2.78-17.73-5.26l4.5-13.61c5.16,2.27,10.2,3.97,15.12,5.1,4.92,1.13,10.08,1.7,15.48,1.7,6.48,0,11.76-1.24,15.84-3.73,4.08-2.48,6.12-6.16,6.12-11.02,0-3.46-1.41-6.53-4.23-9.23-2.82-2.7-8.31-5.24-16.47-7.61l-10.62-3.08c-8.28-2.48-14.79-5.8-19.53-9.96-4.74-4.16-7.11-9.96-7.11-17.42,0-8.96,3.36-16.14,10.08-21.54,6.72-5.4,16.5-8.1,29.34-8.1Z"/>
        <path class="cls-1" d="M202.46,1659.07v14.26h-34.2v87.8h-19.26v-87.8h-33.66v-14.26h87.12Z"/>
        <path class="cls-1" d="M227.65,1659.07h39.06c6,0,11.31.79,15.93,2.35,4.62,1.57,8.49,3.72,11.61,6.48,3.12,2.76,5.46,6.02,7.02,9.8,1.56,3.78,2.34,7.88,2.34,12.31,0,4-.69,7.56-2.07,10.69-1.38,3.13-3.15,5.86-5.31,8.18-2.16,2.32-4.59,4.32-7.29,5.99-2.7,1.68-5.43,3-8.19,3.97l29.16,42.28h-21.78l-25.02-39.21h-16.74v39.21h-18.72v-102.06ZM246.37,1708.16h12.24c3.6,0,6.9-.32,9.9-.97,3-.65,5.64-1.67,7.92-3.08,2.28-1.4,4.05-3.21,5.31-5.43,1.26-2.21,1.89-4.88,1.89-8.02,0-6.05-1.92-10.55-5.76-13.53-3.84-2.97-9.36-4.46-16.56-4.46h-14.94v35.48Z"/>
        <path class="cls-1" d="M336.19,1659.07h70.2v13.93h-50.94v28.19h46.26v13.77h-46.26v32.24h51.48v13.93h-70.74v-102.06Z"/>
        <path class="cls-1" d="M468.67,1659.07h18.36l44.1,102.06h-20.16l-11.34-26.73h-44.46l-11.16,26.73h-19.98l44.64-102.06ZM460.03,1721.12h34.38l-6.66-16.53c-2.04-4.54-3.81-8.77-5.31-12.72-1.5-3.94-3.09-8.45-4.77-13.53h-.36c-1.8,4.75-3.48,9.15-5.04,13.2-1.56,4.05-3.36,8.45-5.4,13.2l-6.84,16.36Z"/>
        <path class="cls-1" d="M562.09,1659.07h24.84l19.98,55.08c1.68,4.64,3.15,8.83,4.41,12.55s2.55,7.91,3.87,12.55h.54c1.32-3.89,2.67-8.04,4.05-12.47,1.38-4.43,2.73-8.64,4.05-12.64l19.26-55.08h24.84l9.36,102.06h-18.72c-.96-10.8-1.89-21.68-2.79-32.64-.9-10.96-1.59-21.95-2.07-32.97l-.72-18.63h-.36c-2.04,6.7-4.17,13.5-6.39,20.41-2.22,6.91-4.53,13.55-6.93,19.93l-16.02,43.9h-16.38l-16.2-44.06c-1.68-4.64-3.15-8.85-4.41-12.64-1.26-3.78-2.4-7.26-3.42-10.45-1.02-3.18-1.95-6.18-2.79-8.99-.84-2.81-1.62-5.51-2.34-8.1h-.54c-.36,9.18-.9,18.52-1.62,28.03-.72,9.51-1.38,18.63-1.98,27.38l-2.16,28.84h-18.36l9-102.06Z"/>
        <path class="cls-1" d="M712.39,1659.07h19.26v87.8h47.52v14.26h-66.78v-102.06Z"/>
        <path class="cls-1" d="M824.35,1659.07v102.06h-19.26v-102.06h19.26Z"/>
        <path class="cls-1" d="M861.61,1659.07h17.1l47.52,61.07c2.16,2.81,4.2,5.62,6.12,8.42,1.92,2.81,3.54,5.35,4.86,7.61h.36c-.6-7.99-.9-15.96-.9-23.89v-53.22h18.54v102.06h-17.1l-46.26-59.13c-2.28-2.92-4.5-6.07-6.66-9.48s-4.02-6.45-5.58-9.15h-.36c.6,8.42.9,16.77.9,25.03v52.73h-18.54v-102.06Z"/>
        <path class="cls-1" d="M1011.73,1659.07v102.06h-19.26v-102.06h19.26Z"/>
        <path class="cls-1" d="M1048.98,1659.07h17.1l47.52,61.07c2.16,2.81,4.2,5.62,6.12,8.42,1.92,2.81,3.54,5.35,4.86,7.61h.36c-.6-7.99-.9-15.96-.9-23.89v-53.22h18.54v102.06h-17.1l-46.26-59.13c-2.28-2.92-4.5-6.07-6.66-9.48s-4.02-6.45-5.58-9.15h-.36c.6,8.42.9,16.77.9,25.03v52.73h-18.54v-102.06Z"/>
        <path class="cls-1" d="M1230.96,1657.45c13.2,0,24.24,2,33.12,5.99l-4.32,12.8c-4.32-1.84-8.67-3.18-13.05-4.05-4.38-.86-8.91-1.29-13.59-1.29-5.16,0-10.05.7-14.67,2.11-4.62,1.4-8.7,3.67-12.24,6.8-3.54,3.13-6.36,7.18-8.46,12.15-2.1,4.97-3.15,11.07-3.15,18.3,0,12.64,3.18,22.28,9.54,28.92,6.36,6.64,15.36,9.96,27,9.96,4.08,0,7.59-.19,10.53-.57,2.94-.38,5.73-1,8.37-1.86v-26.89h-20.52v-13.28h38.7v50.06c-4.8,1.73-10.2,3.19-16.2,4.38-6,1.19-13.02,1.78-21.06,1.78s-15.36-1.13-22.32-3.4c-6.96-2.27-13.02-5.61-18.18-10.04-5.16-4.43-9.21-9.91-12.15-16.44-2.94-6.53-4.41-14.07-4.41-22.6s1.44-16.09,4.32-22.68c2.88-6.59,6.87-12.12,11.97-16.61,5.1-4.48,11.13-7.86,18.09-10.12,6.96-2.27,14.52-3.4,22.68-3.4Z"/>
        <path class="cls-1" d="M1403.94,1748.82c5.88,0,10.77-.46,14.67-1.38,3.9-.92,7.59-2.13,11.07-3.64l4.14,13.45c-3.84,1.62-8.28,2.94-13.32,3.97s-11.22,1.54-18.54,1.54c-7.8,0-15.09-1.16-21.87-3.48-6.78-2.32-12.66-5.72-17.64-10.21-4.98-4.48-8.91-9.99-11.79-16.52-2.88-6.53-4.32-14.01-4.32-22.44s1.38-15.58,4.14-22.11c2.76-6.53,6.63-12.07,11.61-16.61,4.98-4.54,10.92-7.99,17.82-10.37,6.9-2.37,14.49-3.56,22.77-3.56,7.56,0,13.77.57,18.63,1.7,4.86,1.13,9.15,2.62,12.87,4.45l-4.5,13.12c-4.08-1.62-7.95-2.92-11.61-3.89-3.66-.97-8.01-1.46-13.05-1.46s-10.05.7-14.67,2.11c-4.62,1.4-8.64,3.67-12.06,6.8-3.42,3.13-6.15,7.15-8.19,12.07-2.04,4.92-3.06,10.83-3.06,17.74s.99,12.83,2.97,17.74c1.98,4.92,4.62,8.91,7.92,11.99,3.3,3.08,7.2,5.35,11.7,6.8,4.5,1.46,9.27,2.19,14.31,2.19Z"/>
        <path class="cls-1" d="M1463.52,1659.07h19.26v87.8h47.52v14.26h-66.78v-102.06Z"/>
        <path class="cls-1" d="M1575.48,1659.07v102.06h-19.26v-102.06h19.26Z"/>
        <path class="cls-1" d="M1619.58,1659.07h24.84l19.98,55.08c1.68,4.64,3.15,8.83,4.41,12.55s2.55,7.91,3.87,12.55h.54c1.32-3.89,2.67-8.04,4.05-12.47,1.38-4.43,2.73-8.64,4.05-12.64l19.26-55.08h24.84l9.36,102.06h-18.72c-.96-10.8-1.89-21.68-2.79-32.64-.9-10.96-1.59-21.95-2.07-32.97l-.72-18.63h-.36c-2.04,6.7-4.17,13.5-6.39,20.41-2.22,6.91-4.53,13.55-6.93,19.93l-16.02,43.9h-16.38l-16.2-44.06c-1.68-4.64-3.15-8.85-4.41-12.64-1.26-3.78-2.4-7.26-3.42-10.45-1.02-3.18-1.95-6.18-2.79-8.99-.84-2.81-1.62-5.51-2.34-8.1h-.54c-.36,9.18-.9,18.52-1.62,28.03-.72,9.51-1.38,18.63-1.98,27.38l-2.16,28.84h-18.36l9-102.06Z"/>
        <path class="cls-1" d="M1801.37,1659.07h18.36l44.1,102.06h-20.16l-11.34-26.73h-44.46l-11.16,26.73h-19.98l44.64-102.06ZM1792.73,1721.12h34.38l-6.66-16.53c-2.04-4.54-3.81-8.77-5.31-12.72-1.5-3.94-3.09-8.45-4.77-13.53h-.36c-1.8,4.75-3.48,9.15-5.04,13.2-1.56,4.05-3.36,8.45-5.4,13.2l-6.84,16.36Z"/>
        <path class="cls-1" d="M1952.94,1659.07v14.26h-34.2v87.8h-19.26v-87.8h-33.66v-14.26h87.12Z"/>
        <path class="cls-1" d="M1978.13,1659.07h70.2v13.93h-50.94v28.19h46.26v13.77h-46.26v32.24h51.48v13.93h-70.74v-102.06Z"/>
        <path class="cls-1" d="M2198.09,1659.07v13.93h-49.14v31.1h45.18v13.77h-45.18v43.25h-19.26v-102.06h68.4Z"/>
        <path class="cls-1" d="M2246.87,1659.07v102.06h-19.26v-102.06h19.26Z"/>
        <path class="cls-1" d="M2284.13,1659.07h17.1l47.52,61.07c2.16,2.81,4.2,5.62,6.12,8.42,1.92,2.81,3.54,5.35,4.86,7.61h.36c-.6-7.99-.9-15.96-.9-23.89v-53.22h18.54v102.06h-17.1l-46.26-59.13c-2.28-2.92-4.5-6.07-6.66-9.48s-4.02-6.45-5.58-9.15h-.36c.6,8.42.9,16.77.9,25.03v52.73h-18.54v-102.06Z"/>
        <path class="cls-1" d="M2446.49,1659.07h18.36l44.1,102.06h-20.16l-11.34-26.73h-44.46l-11.16,26.73h-19.98l44.64-102.06ZM2437.85,1721.12h34.38l-6.66-16.53c-2.04-4.54-3.81-8.77-5.31-12.72-1.5-3.94-3.09-8.45-4.77-13.53h-.36c-1.8,4.75-3.48,9.15-5.04,13.2-1.56,4.05-3.36,8.45-5.4,13.2l-6.84,16.36Z"/>
        <path class="cls-1" d="M2533.07,1659.07h17.1l47.52,61.07c2.16,2.81,4.2,5.62,6.12,8.42,1.92,2.81,3.54,5.35,4.86,7.61h.36c-.6-7.99-.9-15.96-.9-23.89v-53.22h18.54v102.06h-17.1l-46.26-59.13c-2.28-2.92-4.5-6.07-6.66-9.48s-4.02-6.45-5.58-9.15h-.36c.6,8.42.9,16.77.9,25.03v52.73h-18.54v-102.06Z"/>
        <path class="cls-1" d="M2715.59,1748.82c5.88,0,10.77-.46,14.67-1.38,3.9-.92,7.59-2.13,11.07-3.64l4.14,13.45c-3.84,1.62-8.28,2.94-13.32,3.97s-11.22,1.54-18.54,1.54c-7.8,0-15.09-1.16-21.87-3.48-6.78-2.32-12.66-5.72-17.64-10.21-4.98-4.48-8.91-9.99-11.79-16.52-2.88-6.53-4.32-14.01-4.32-22.44s1.38-15.58,4.14-22.11c2.76-6.53,6.63-12.07,11.61-16.61,4.98-4.54,10.92-7.99,17.82-10.37,6.9-2.37,14.49-3.56,22.77-3.56,7.56,0,13.77.57,18.63,1.7,4.86,1.13,9.15,2.62,12.87,4.45l-4.5,13.12c-4.08-1.62-7.95-2.92-11.61-3.89-3.66-.97-8.01-1.46-13.05-1.46s-10.05.7-14.67,2.11c-4.62,1.4-8.64,3.67-12.06,6.8-3.42,3.13-6.15,7.15-8.19,12.07-2.04,4.92-3.06,10.83-3.06,17.74s.99,12.83,2.97,17.74c1.98,4.92,4.62,8.91,7.92,11.99,3.3,3.08,7.2,5.35,11.7,6.8,4.5,1.46,9.27,2.19,14.31,2.19Z"/>
        <path class="cls-1" d="M2775.17,1659.07h70.2v13.93h-50.94v28.19h46.26v13.77h-46.26v32.24h51.48v13.93h-70.74v-102.06Z"/>
      </g>
      <g>
        <path class="cls-2" d="M1775.89,295.47c-81.88,77.88-195.84,109.37-304.92,125.12-97.35,14.32-198.99,20.33-286.02,58.12-91.05,39.8-148.31,105.65-143.73,207.58,2.86,61.27,35.79,121.11,82.17,167.21,12.88,10.31,26.05,20.04,39.8,28.92-.86-1.72-1.72-3.72-3.15-5.44-55.26-75.87-98.2-293.18,190.97-340.42,58.12-9.45,116.24-19.18,174.08-32.35,50.96-11.74,142.01-40.37,152.03-45.81,8.3-4.87-54.11,65.28-245.37,120.25-303.78,87.32-210.44,339.56-117.67,368.48,35.5,8.59,72.72,12.88,110.8,12.88,265.12,0,480.14-214.73,480.14-479.86,0-95.34-27.77-184.1-75.59-258.54-12.88,28.06-30.92,52.11-53.54,73.87Z"/>
        <path class="cls-2" d="M945.02,480.14c0,52.68,8.59,102.79,24.05,150.31,5.73-52.11,23.48-101.35,56.69-143.16,60.13-76.44,153.46-112.23,250.52-131.42,96.77-18.9,199.84-21.19,299.19-45.24,54.97-13.17,110.8-34.64,155.18-69.86,36.93-29.78,54.11-75.01,15.75-117.1-14.03-12.6-28.92-24.62-44.38-35.5,28.06,57.55,6.3,143.16-221.32,165.49-58.41,6.01-116.53,11.45-174.08,19.47-16.89,2.29-37.79,5.44-59.27,9.16,0,0,18.9-23.48,152.32-53.83,274.29-61.84,223.04-181.23,141.72-214.16-37.22-9.16-76.44-14.32-116.53-14.32-265.12.29-479.86,215.02-479.86,480.14Z"/>
      </g>
    </g>
  </g>
</svg>